<?xml version="1.0" encoding="UTF-8"?>
<svg version="1.1" xmlns="http://www.w3.org/2000/svg" width="132" height="100">
<path d="M0 0 C43.56 0 87.12 0 132 0 C132 33 132 66 132 100 C88.44 100 44.88 100 0 100 C0 67 0 34 0 0 Z " fill="#FDFDFD" transform="translate(0,0)"/>
<path d="M0 0 C3.62898876 1.27896653 6.1572034 2.72761841 9 5.3125 C9.68707031 5.93640625 10.37414062 6.5603125 11.08203125 7.203125 C15.39533894 11.24410572 19.27418643 15.4225719 23 20 C22.34 20.99 21.68 21.98 21 23 C19.68 22.34 18.36 21.68 17 21 C16.67 28.92 16.34 36.84 16 45 C10.39 45 4.78 45 -1 45 C-1 40.38 -1 35.76 -1 31 C-2.98 31 -4.96 31 -7 31 C-7 35.62 -7 40.24 -7 45 C-8.98 45 -10.96 45 -13 45 C-13 36.75 -13 28.5 -13 20 C-13.66 20 -14.32 20 -15 20 C-15 20.66 -15 21.32 -15 22 C-16.65 21.67 -18.3 21.34 -20 21 C-19.4356735 17.47677238 -18.36929879 16.10404269 -15.625 13.875 C-12.00162716 10.85113066 -8.48098176 7.74766041 -5 4.5625 C-4.05125 3.69753906 -3.1025 2.83257812 -2.125 1.94140625 C-1.42375 1.30074219 -0.7225 0.66007812 0 0 Z " fill="#29333C" transform="translate(66,34)"/>
<path d="M0 0 C0.99 0.33 1.98 0.66 3 1 C3 2.65 3 4.3 3 6 C6.63 6 10.26 6 14 6 C14 4.02 14 2.04 14 0 C14.99 0 15.98 0 17 0 C17 1.98 17 3.96 17 6 C19.31 6 21.62 6 24 6 C24.02693575 8.12493141 24.04636628 10.24995912 24.0625 12.375 C24.07410156 13.55835938 24.08570313 14.74171875 24.09765625 15.9609375 C24 19 24 19 23 21 C22.34 21 21.68 21 21 21 C20.67 22.65 20.34 24.3 20 26 C18.35 26 16.7 26 15 26 C15.020625 25.195625 15.04125 24.39125 15.0625 23.5625 C15.29633621 21.06645115 15.29633621 21.06645115 14 20 C14 21.98 14 23.96 14 26 C12.80503906 25.98259766 12.80503906 25.98259766 11.5859375 25.96484375 C3.74521011 25.88148443 3.74521011 25.88148443 -4 27 C-4.33 29.31 -4.66 31.62 -5 34 C-3.02 33.505 -3.02 33.505 -1 33 C-1.66 32.67 -2.32 32.34 -3 32 C-3 30.35 -3 28.7 -3 27 C2.61 27 8.22 27 14 27 C14 33.75 14 33.75 13 37 C10.06195004 37.08086376 7.12611925 37.1404283 4.1875 37.1875 C3.35412109 37.21263672 2.52074219 37.23777344 1.66210938 37.26367188 C0.45844727 37.27817383 0.45844727 37.27817383 -0.76953125 37.29296875 C-1.87711792 37.31653442 -1.87711792 37.31653442 -3.00708008 37.34057617 C-5 37 -5 37 -6.74609375 35.8828125 C-8.5961796 33.10480197 -8.33791994 30.89343524 -8.29296875 27.58203125 C-8.28330078 26.32841797 -8.27363281 25.07480469 -8.26367188 23.78320312 C-8.23853516 22.47287109 -8.21339844 21.16253906 -8.1875 19.8125 C-8.17244967 18.47722837 -8.15876187 17.14194063 -8.14648438 15.80664062 C-8.11107694 12.53735424 -8.0616889 9.26887907 -8 6 C-5.69 6 -3.38 6 -1 6 C-1.020625 5.195625 -1.04125 4.39125 -1.0625 3.5625 C-1 1 -1 1 0 0 Z " fill="#2A333B" transform="translate(30,21)"/>
<path d="M0 0 C2.31 0 4.62 0 7 0 C7.33 0.99 7.66 1.98 8 3 C8.66 2.01 9.32 1.02 10 0 C13.625 -0.1875 13.625 -0.1875 17 0 C17 1.32 17 2.64 17 4 C19.475 4.495 19.475 4.495 22 5 C22.33 3.68 22.66 2.36 23 1 C24.36587183 9.49875807 23.64714953 17.44324516 23 26 C17.39 26 11.78 26 6 26 C6 21.38 6 16.76 6 12 C4.02 12 2.04 12 0 12 C0 8 0 4 0 0 Z " fill="#2B353D" transform="translate(59,53)"/>
<path d="M0 0 C8.58 0 17.16 0 26 0 C26.66 2.31 27.32 4.62 28 7 C27.01 7.495 27.01 7.495 26 8 C25.34444881 10.52733235 25.34444881 10.52733235 25 13 C23.35 13 21.7 13 20 13 C20.020625 12.195625 20.04125 11.39125 20.0625 10.5625 C20.29633621 8.06645115 20.29633621 8.06645115 19 7 C19 8.98 19 10.96 19 13 C18.21496094 12.98839844 17.42992188 12.97679687 16.62109375 12.96484375 C10.96280225 12.91624493 5.57121122 12.98705251 0 14 C0 9.38 0 4.76 0 0 Z " fill="#B3B7BA" transform="translate(25,34)"/>
<path d="M0 0 C1.30517578 1.09634766 1.30517578 1.09634766 2.63671875 2.21484375 C3.51972656 2.94832031 4.40273437 3.68179688 5.3125 4.4375 C6.30830078 5.28634766 6.30830078 5.28634766 7.32421875 6.15234375 C6.12401317 9.50148886 4.94536239 11.97946656 2.44921875 14.52734375 C1.95679687 15.05070312 1.464375 15.5740625 0.95703125 16.11328125 C-0.67578125 17.15234375 -0.67578125 17.15234375 -2.57421875 17.046875 C-5.2789056 15.89562354 -7.19503478 14.3784743 -9.42578125 12.46484375 C-10.225 11.80097656 -11.02421875 11.13710937 -11.84765625 10.453125 C-14.17038547 7.52986108 -14.02995126 5.79300314 -13.67578125 2.15234375 C-14.33578125 1.82234375 -14.99578125 1.49234375 -15.67578125 1.15234375 C-14.68578125 1.15234375 -13.69578125 1.15234375 -12.67578125 1.15234375 C-12.34578125 0.16234375 -12.01578125 -0.82765625 -11.67578125 -1.84765625 C-7.35136291 -3.7009784 -3.74259297 -2.58430142 0 0 Z " fill="#F0F1F2" transform="translate(98.67578125,61.84765625)"/>
<path d="M0 0 C43.56 0 87.12 0 132 0 C132 2.31 132 4.62 132 7 C130.824375 6.0409375 130.824375 6.0409375 129.625 5.0625 C126.10899865 2.29992751 124.53237789 1.87486548 120.14808655 1.87301636 C118.61067558 1.86878662 118.61067558 1.86878662 117.04220581 1.86447144 C115.9133194 1.86649567 114.78443298 1.8685199 113.62133789 1.87060547 C112.43592911 1.86885315 111.25052032 1.86710083 110.02919006 1.86529541 C106.77299888 1.86164096 103.51684815 1.8625081 100.26065755 1.8656745 C96.85609809 1.86820203 93.45154138 1.8658594 90.04698181 1.86428833 C84.32794711 1.86246754 78.60892532 1.86487032 72.88989258 1.86962891 C66.27567448 1.87506876 59.66148722 1.87331052 53.04726988 1.8678025 C47.37249235 1.8632657 41.6977241 1.86262369 36.02294534 1.86524117 C32.63194583 1.86680115 29.24096082 1.86700538 25.84996223 1.86370468 C22.06930564 1.86117388 18.28870877 1.865025 14.50805664 1.87060547 C13.38119446 1.86858124 12.25433228 1.86655701 11.09332275 1.86447144 C10.06556229 1.86729126 9.03780182 1.87011108 7.97889709 1.87301636 C7.08459016 1.87339338 6.19028322 1.87377041 5.26887608 1.87415886 C2.8330547 1.90942322 2.8330547 1.90942322 0 3 C0 2.01 0 1.02 0 0 Z " fill="#394249" transform="translate(0,0)"/>
<path d="M0 0 C0.33 0 0.66 0 1 0 C1 2.31 1 4.62 1 7 C-42.56 7 -86.12 7 -131 7 C-130.67 6.01 -130.34 5.02 -130 4 C-129.34 4.33 -128.68 4.66 -128 5 C-126.38954386 5.09902399 -124.77503349 5.13505716 -123.1615448 5.14044189 C-121.62846931 5.14900711 -121.62846931 5.14900711 -120.06442261 5.15774536 C-118.37580612 5.15942215 -118.37580612 5.15942215 -116.65307617 5.16113281 C-115.47087997 5.16609772 -114.28868378 5.17106262 -113.07066345 5.17617798 C-109.82261004 5.18829935 -106.57459264 5.19574826 -103.32652068 5.20018864 C-101.29725538 5.20311881 -99.26799574 5.20722354 -97.23873329 5.21169281 C-90.8896974 5.22537023 -84.54067443 5.2350353 -78.19162482 5.2388947 C-70.86265798 5.24337418 -63.53387777 5.26091574 -56.20496768 5.2898953 C-50.54034868 5.31151628 -44.87578216 5.32159922 -39.21112233 5.32293582 C-35.82781607 5.3239837 -32.44468517 5.32988731 -29.06142235 5.34775543 C-25.28583955 5.36477405 -21.51071282 5.36294556 -17.73510742 5.35644531 C-16.61543579 5.3656601 -15.49576416 5.37487488 -14.34216309 5.3843689 C-12.79639839 5.37601517 -12.79639839 5.37601517 -11.21940613 5.36749268 C-10.32694278 5.36895924 -9.43447943 5.3704258 -8.51497173 5.3719368 C-5.42112876 4.91439128 -3.52820477 3.81115572 -1 2 C-0.67 1.34 -0.34 0.68 0 0 Z " fill="#394046" transform="translate(131,93)"/>
<path d="M0 0 C1.216875 -0.020625 2.43375 -0.04125 3.6875 -0.0625 C4.71423828 -0.07990234 4.71423828 -0.07990234 5.76171875 -0.09765625 C8 0 8 0 13 1 C13 4.63 13 8.26 13 12 C6.565 12.495 6.565 12.495 0 13 C0 8.71 0 4.42 0 0 Z " fill="#B3B7B9" transform="translate(25,35)"/>
<path d="M0 0 C1.30517578 1.09634766 1.30517578 1.09634766 2.63671875 2.21484375 C3.51972656 2.94832031 4.40273437 3.68179688 5.3125 4.4375 C6.30830078 5.28634766 6.30830078 5.28634766 7.32421875 6.15234375 C6.12401317 9.50148886 4.94536239 11.97946656 2.44921875 14.52734375 C1.95679687 15.05070312 1.464375 15.5740625 0.95703125 16.11328125 C-0.67578125 17.15234375 -0.67578125 17.15234375 -2.57421875 17.046875 C-5.2789056 15.89562354 -7.19503478 14.3784743 -9.42578125 12.46484375 C-10.225 11.80097656 -11.02421875 11.13710937 -11.84765625 10.453125 C-14.17038547 7.52986108 -14.02995126 5.79300314 -13.67578125 2.15234375 C-14.33578125 1.82234375 -14.99578125 1.49234375 -15.67578125 1.15234375 C-14.68578125 1.15234375 -13.69578125 1.15234375 -12.67578125 1.15234375 C-12.34578125 0.16234375 -12.01578125 -0.82765625 -11.67578125 -1.84765625 C-7.35136291 -3.7009784 -3.74259297 -2.58430142 0 0 Z M-10.67578125 0.15234375 C-10.67578125 0.81234375 -10.67578125 1.47234375 -10.67578125 2.15234375 C-9.35578125 1.82234375 -8.03578125 1.49234375 -6.67578125 1.15234375 C-6.67578125 2.14234375 -6.67578125 3.13234375 -6.67578125 4.15234375 C-8.32578125 3.82234375 -9.97578125 3.49234375 -11.67578125 3.15234375 C-11.19957836 7.52887504 -10.00678236 9.2177238 -6.61328125 11.96484375 C-5.87980469 12.56941406 -5.14632812 13.17398438 -4.390625 13.796875 C-3.82472656 14.24417969 -3.25882813 14.69148438 -2.67578125 15.15234375 C-0.36578125 13.17234375 1.94421875 11.19234375 4.32421875 9.15234375 C2.5522857 5.60847766 1.69523973 4.31108169 -1.17578125 1.90234375 C-1.78421875 1.3815625 -2.39265625 0.86078125 -3.01953125 0.32421875 C-5.68350235 -1.56066646 -7.68813887 -0.64436088 -10.67578125 0.15234375 Z " fill="#454D53" transform="translate(98.67578125,61.84765625)"/>
<path d="M0 0 C0.99 0.33 1.98 0.66 3 1 C3 2.65 3 4.3 3 6 C6.63 6 10.26 6 14 6 C14 4.02 14 2.04 14 0 C14.99 0 15.98 0 17 0 C17 1.98 17 3.96 17 6 C19.31 6 21.62 6 24 6 C24 6.33 24 6.66 24 7 C21.69 7 19.38 7 17 7 C16.67 8.32 16.34 9.64 16 11 C15.34 11 14.68 11 14 11 C14 9.68 14 8.36 14 7 C10.37 7 6.74 7 3 7 C2.67 8.32 2.34 9.64 2 11 C1.01 10.67 0.02 10.34 -1 10 C-1 9.01 -1 8.02 -1 7 C-2.98 7 -4.96 7 -7 7 C-7 15.91 -7 24.82 -7 34 C-7.33 34 -7.66 34 -8 34 C-8 24.76 -8 15.52 -8 6 C-5.69 6 -3.38 6 -1 6 C-1.020625 5.195625 -1.04125 4.39125 -1.0625 3.5625 C-1 1 -1 1 0 0 Z " fill="#A0A5A9" transform="translate(30,21)"/>
<path d="M0 0 C5.61 0 11.22 0 17 0 C17 6 17 6 16 8 C10.39 8 4.78 8 -1 8 C-0.01 7.34 0.98 6.68 2 6 C1.34 5.67 0.68 5.34 0 5 C0 3.35 0 1.7 0 0 Z " fill="#7E8488" transform="translate(27,48)"/>
<path d="M0 0 C1.98 0 3.96 0 6 0 C6 1.98 6 3.96 6 6 C4.68 6 3.36 6 2 6 C2.33 12.93 2.66 19.86 3 27 C8.61 27.33 14.22 27.66 20 28 C20 28.66 20 29.32 20 30 C17.04160645 30.02689449 14.08345573 30.04678741 11.125 30.0625 C10.28324219 30.07087891 9.44148438 30.07925781 8.57421875 30.08789062 C7.76855469 30.09111328 6.96289062 30.09433594 6.1328125 30.09765625 C5.01737061 30.10551147 5.01737061 30.10551147 3.87939453 30.11352539 C2 30 2 30 0 29 C0 19.43 0 9.86 0 0 Z " fill="#323B43" transform="translate(23,28)"/>
<path d="M0 0 C0.99 0 1.98 0 3 0 C3 1.98 3 3.96 3 6 C5.31 6 7.62 6 10 6 C10 6.33 10 6.66 10 7 C7.69 7 5.38 7 3 7 C2.67 8.32 2.34 9.64 2 11 C1.34 11 0.68 11 0 11 C0 9.68 0 8.36 0 7 C-3.63 7 -7.26 7 -11 7 C-11 6.67 -11 6.34 -11 6 C-7.37 6 -3.74 6 0 6 C0 4.02 0 2.04 0 0 Z " fill="#A6ABAE" transform="translate(44,21)"/>
<path d="M0 0 C9.24 0 18.48 0 28 0 C28 2.31 28 4.62 28 7 C27.21625 6.360625 26.4325 5.72125 25.625 5.0625 C22.18959212 2.36325095 20.49239412 1.8641371 16.2109375 1.68359375 C15.26992187 1.64169922 14.32890625 1.59980469 13.359375 1.55664062 C12.37453125 1.51732422 11.3896875 1.47800781 10.375 1.4375 C9.38242188 1.39431641 8.38984375 1.35113281 7.3671875 1.30664062 C4.91160162 1.20038931 2.45591297 1.09835036 0 1 C0 0.67 0 0.34 0 0 Z " fill="#3C454B" transform="translate(104,0)"/>
<path d="M0 0 C1.98 0 3.96 0 6 0 C6 2.31 6 4.62 6 7 C4.02 7 2.04 7 0 7 C0 4.69 0 2.38 0 0 Z " fill="#E5E8E9" transform="translate(70,53)"/>
<path d="M0 0 C1.98 0 3.96 0 6 0 C6 2.31 6 4.62 6 7 C4.02 7 2.04 7 0 7 C0 4.69 0 2.38 0 0 Z " fill="#E9EBED" transform="translate(59,53)"/>
<path d="M0 0 C1.65 0 3.3 0 5 0 C5 1.98 5 3.96 5 6 C2.47524538 7.26237731 0.68799534 7.09856404 -2.125 7.0625 C-3.03507812 7.05347656 -3.94515625 7.04445313 -4.8828125 7.03515625 C-5.58148438 7.02355469 -6.28015625 7.01195312 -7 7 C-7 6.67 -7 6.34 -7 6 C-5.02 5.67 -3.04 5.34 -1 5 C-0.67 3.35 -0.34 1.7 0 0 Z " fill="#A5A9AD" transform="translate(39,48)"/>
<path d="M0 0 C0.66 0 1.32 0 2 0 C0.66107226 4.55235431 -1.96242706 8.4306354 -6 11 C-8.1328125 10.8515625 -8.1328125 10.8515625 -10 10 C-10.33 9.01 -10.66 8.02 -11 7 C-9.68 7.33 -8.36 7.66 -7 8 C-6.27683594 7.13375 -6.27683594 7.13375 -5.5390625 6.25 C-4.90742187 5.5075 -4.27578125 4.765 -3.625 4 C-2.99851562 3.2575 -2.37203125 2.515 -1.7265625 1.75 C-0.87191406 0.88375 -0.87191406 0.88375 0 0 Z " fill="#3C4449" transform="translate(104,68)"/>
<path d="M0 0 C1.65 0 3.3 0 5 0 C5 1.65 5 3.3 5 5 C3.35 5 1.7 5 0 5 C0 3.35 0 1.7 0 0 Z " fill="#6A7177" transform="translate(45,42)"/>
<path d="M0 0 C1.65 0 3.3 0 5 0 C5 1.65 5 3.3 5 5 C3.35 5 1.7 5 0 5 C0 3.35 0 1.7 0 0 Z " fill="#686E73" transform="translate(45,36)"/>
<path d="M0 0 C1.65 0 3.3 0 5 0 C5 1.65 5 3.3 5 5 C3.35 5 1.7 5 0 5 C0 3.35 0 1.7 0 0 Z " fill="#686D72" transform="translate(39,36)"/>
<path d="M0 0 C0.33 0 0.66 0 1 0 C1 2.31 1 4.62 1 7 C-0.98 7 -2.96 7 -5 7 C-5.33 6.34 -5.66 5.68 -6 5 C-5.195625 4.54625 -4.39125 4.0925 -3.5625 3.625 C-0.91143428 2.25274335 -0.91143428 2.25274335 0 0 Z " fill="#454E56" transform="translate(131,93)"/>
<path d="M0 0 C0 2.31 0 4.62 0 7 C-2.43929746 5.07423885 -4.80090595 3.19909405 -7 1 C-4 0 -4 0 0 0 Z " fill="#485156" transform="translate(132,0)"/>
<path d="M0 0 C2.475 0.99 2.475 0.99 5 2 C4.67 2.99 4.34 3.98 4 5 C2.35 4.67 0.7 4.34 -1 4 C-0.67 2.68 -0.34 1.36 0 0 Z " fill="#39434A" transform="translate(47,51)"/>
<path d="M0 0 C0.99 0 1.98 0 3 0 C3 1.98 3 3.96 3 6 C2.01 6 1.02 6 0 6 C0 4.02 0 2.04 0 0 Z " fill="#333C44" transform="translate(44,21)"/>
<path d="M0 0 C0.99 0.33 1.98 0.66 3 1 C3 2.65 3 4.3 3 6 C2.01 6 1.02 6 0 6 C0 4.02 0 2.04 0 0 Z " fill="#3B434A" transform="translate(30,21)"/>
</svg>
